# xmcd CD database file
#
# Track frame offsets:
#	150
#	19743
#	38478
#	58501
#	75946
#	91511
#	112564
#	135393
#	152646
#	174113
#	189733
#	201459
#	217098
#	233818
#	252939
#	266334
#	286462
#	298013
#	311799
#	336375
#
# Disc length: 4742 seconds
#
# Revision: 3
# Processed by: cddbd v1.5.2PL0 Copyright (c) Steve Scherf et al.
# Submitted via: CDex 1.70beta2
#
DISCID=0e128414
DTITLE=Angelo Branduardi - The Platinum Colletion - [CD 1 - Anno 2004)
DYEAR=2004
DGENRE=
TTITLE0=Si Può Fare (Branduardi-Luisa Zappa Branduardi) (1992)
TTITLE1=Il Viaggiatore (Branduardi-Luisa Zappa Branduardi) (1995
TTITLE2=Forte (Branduardi-Luisa Zappa Branduardi) (1992)
TTITLE3=Domenica E Lunedì (Branduardi-Luisa Zappa Branduardi) (1994)
TTITLE4=La Ragazza E L'eremità (Branduardi-Pallottino) (1994)
TTITLE5=Fou De Love (Branduardi-Panellai) (1994)
TTITLE6=La Donna Della Sera (Branduardi-Vecchioni) (1994)
TTITLE7=Il Giocatore Di Biliardo (Branduardi-Faletti) (1988)
TTITLE8=L'aprendista Stregone(Branduardi-Faletti) (1988)
TTITLE9=Il Dito E La Luna (Branduardi-Faletti) (1988)
TTITLE10=Per Ogni Matematico (Branduardi-Faletti) (1988)
TTITLE11=Lamento Di Un Uomo Di Neve (Branduardi-Faletti) (1988)
TTITLE12=Il Violinista Di Donney (Branduardi-Luisa Zappa Branduardi) (1986)
TTITLE13=La Canzone Di Aengus, Il Vagabondo (Branduardi-Luisa Zappa Branduardi) (1986)
TTITLE14=Nel Giardino Dei Salici (Branduardi-Luisa Zappa Branduardi) (1986)
TTITLE15=Inisfree L'isola Sul Lago (Branduardi-Luisa Zappa Branduardi) (1986)
TTITLE16=A L'entrada Del Temps Clar (anonimo) (1996)
TTITLE17=Scarborough Fair (Anonimo) (1996)
TTITLE18=Calenda Maia (Rambault De Vasqueiras) (1996)
TTITLE19=Dati Traccia
EXTD=YEAR: 2004
EXTT0=
EXTT1=
EXTT2=
EXTT3=
EXTT4=
EXTT5=
EXTT6=
EXTT7=
EXTT8=
EXTT9=
EXTT10=
EXTT11=
EXTT12=
EXTT13=
EXTT14=
EXTT15=
EXTT16=
EXTT17=
EXTT18=
EXTT19=
PLAYORDER=
